<?xml version="1.0" encoding="UTF-8" standalone="no"?><!DOCTYPE svg PUBLIC "-//W3C//DTD SVG 1.1//EN" "http://www.w3.org/Graphics/SVG/1.1/DTD/svg11.dtd"><svg width="100%" height="100%" viewBox="0 0 600 415" version="1.1" xmlns="http://www.w3.org/2000/svg" xmlns:xlink="http://www.w3.org/1999/xlink" xml:space="preserve" xmlns:serif="http://www.serif.com/" style="fill-rule:evenodd;clip-rule:evenodd;stroke-linecap:round;stroke-linejoin:round;stroke-miterlimit:1.5;"><path d="M300,11c28.869,16.651 57.736,33.317 86.591,49.993c0.014,33.327 0.014,66.66 0,99.987c-28.855,16.675 -57.722,33.342 -86.591,49.993c-28.869,-16.651 -57.736,-33.318 -86.591,-49.993c-0.014,-33.327 -0.014,-66.66 0,-99.987c28.855,-16.676 57.722,-33.342 86.591,-49.993Z" style="fill:#d81b60;stroke:#c2185b;stroke-width:20px;"/><g><path d="M61.488,330.776l-15.36,-21.6c-1.728,0.192 -3.52,0.288 -5.376,0.288l-18.048,0l0,21.312l-7.104,0l0,-67.2l25.152,0c8.576,0 15.296,2.048 20.16,6.144c4.864,4.096 7.296,9.728 7.296,16.896c0,5.248 -1.328,9.68 -3.984,13.296c-2.656,3.616 -6.448,6.224 -11.376,7.824l16.416,23.04l-7.776,0Zm-20.928,-27.36c6.656,0 11.744,-1.472 15.264,-4.416c3.52,-2.944 5.28,-7.072 5.28,-12.384c0,-5.44 -1.76,-9.616 -5.28,-12.528c-3.52,-2.912 -8.608,-4.368 -15.264,-4.368l-17.856,0l0,33.696l17.856,0Z" style="fill-opacity:0.898039;fill-rule:nonzero;"/><path d="M137.328,324.632l0,6.144l-47.52,0l0,-67.2l46.08,0l0,6.144l-38.976,0l0,23.904l34.752,0l0,6.048l-34.752,0l0,24.96l40.416,0Z" style="fill-opacity:0.898039;fill-rule:nonzero;"/><path d="M177.36,331.352c-4.992,0 -9.776,-0.8 -14.352,-2.4c-4.576,-1.6 -8.112,-3.712 -10.608,-6.336l2.784,-5.472c2.432,2.432 5.664,4.4 9.696,5.904c4.032,1.504 8.192,2.256 12.48,2.256c6.016,0 10.528,-1.104 13.536,-3.312c3.008,-2.208 4.512,-5.072 4.512,-8.592c0,-2.688 -0.816,-4.832 -2.448,-6.432c-1.632,-1.6 -3.632,-2.832 -6,-3.696c-2.368,-0.864 -5.664,-1.808 -9.888,-2.832c-5.056,-1.28 -9.088,-2.512 -12.096,-3.696c-3.008,-1.184 -5.584,-2.992 -7.728,-5.424c-2.144,-2.432 -3.216,-5.728 -3.216,-9.888c0,-3.392 0.896,-6.48 2.688,-9.264c1.792,-2.784 4.544,-5.008 8.256,-6.672c3.712,-1.664 8.32,-2.496 13.824,-2.496c3.84,0 7.6,0.528 11.28,1.584c3.68,1.056 6.864,2.512 9.552,4.368l-2.4,5.664c-2.816,-1.856 -5.824,-3.248 -9.024,-4.176c-3.2,-0.928 -6.336,-1.392 -9.408,-1.392c-5.888,0 -10.32,1.136 -13.296,3.408c-2.976,2.272 -4.464,5.2 -4.464,8.784c0,2.688 0.816,4.848 2.448,6.48c1.632,1.632 3.68,2.88 6.144,3.744c2.464,0.864 5.776,1.808 9.936,2.832c4.928,1.216 8.912,2.416 11.952,3.6c3.04,1.184 5.616,2.976 7.728,5.376c2.112,2.4 3.168,5.648 3.168,9.744c0,3.392 -0.912,6.48 -2.736,9.264c-1.824,2.784 -4.624,4.992 -8.4,6.624c-3.776,1.632 -8.416,2.448 -13.92,2.448Z" style="fill-opacity:0.898039;fill-rule:nonzero;"/><path d="M252.048,331.352c-6.656,0 -12.688,-1.488 -18.096,-4.464c-5.408,-2.976 -9.632,-7.056 -12.672,-12.24c-3.04,-5.184 -4.56,-11.008 -4.56,-17.472c0,-6.464 1.52,-12.288 4.56,-17.472c3.04,-5.184 7.264,-9.264 12.672,-12.24c5.408,-2.976 11.44,-4.464 18.096,-4.464c6.656,0 12.656,1.472 18,4.416c5.344,2.944 9.552,7.024 12.624,12.24c3.072,5.216 4.608,11.056 4.608,17.52c0,6.464 -1.536,12.304 -4.608,17.52c-3.072,5.216 -7.28,9.296 -12.624,12.24c-5.344,2.944 -11.344,4.416 -18,4.416Zm0,-6.336c5.312,0 10.112,-1.2 14.4,-3.6c4.288,-2.4 7.648,-5.728 10.08,-9.984c2.432,-4.256 3.648,-9.008 3.648,-14.256c0,-5.248 -1.216,-10 -3.648,-14.256c-2.432,-4.256 -5.792,-7.584 -10.08,-9.984c-4.288,-2.4 -9.088,-3.6 -14.4,-3.6c-5.312,0 -10.128,1.2 -14.448,3.6c-4.32,2.4 -7.712,5.728 -10.176,9.984c-2.464,4.256 -3.696,9.008 -3.696,14.256c0,5.248 1.232,10 3.696,14.256c2.464,4.256 5.856,7.584 10.176,9.984c4.32,2.4 9.136,3.6 14.448,3.6Z" style="fill-opacity:0.898039;fill-rule:nonzero;"/><path d="M335.088,331.352c-8.704,0 -15.488,-2.496 -20.352,-7.488c-4.864,-4.992 -7.296,-12.256 -7.296,-21.792l0,-38.496l7.104,0l0,38.208c0,7.808 1.76,13.632 5.28,17.472c3.52,3.84 8.608,5.76 15.264,5.76c6.72,0 11.84,-1.92 15.36,-5.76c3.52,-3.84 5.28,-9.664 5.28,-17.472l0,-38.208l6.912,0l0,38.496c0,9.536 -2.416,16.8 -7.248,21.792c-4.832,4.992 -11.6,7.488 -20.304,7.488Z" style="fill-opacity:0.898039;fill-rule:nonzero;"/><path d="M434.736,330.776l-15.36,-21.6c-1.728,0.192 -3.52,0.288 -5.376,0.288l-18.048,0l0,21.312l-7.104,0l0,-67.2l25.152,0c8.576,0 15.296,2.048 20.16,6.144c4.864,4.096 7.296,9.728 7.296,16.896c0,5.248 -1.328,9.68 -3.984,13.296c-2.656,3.616 -6.448,6.224 -11.376,7.824l16.416,23.04l-7.776,0Zm-20.928,-27.36c6.656,0 11.744,-1.472 15.264,-4.416c3.52,-2.944 5.28,-7.072 5.28,-12.384c0,-5.44 -1.76,-9.616 -5.28,-12.528c-3.52,-2.912 -8.608,-4.368 -15.264,-4.368l-17.856,0l0,33.696l17.856,0Z" style="fill-opacity:0.898039;fill-rule:nonzero;"/><path d="M492.24,331.352c-6.656,0 -12.656,-1.472 -18,-4.416c-5.344,-2.944 -9.536,-7.024 -12.576,-12.24c-3.04,-5.216 -4.56,-11.056 -4.56,-17.52c0,-6.464 1.52,-12.304 4.56,-17.52c3.04,-5.216 7.248,-9.296 12.624,-12.24c5.376,-2.944 11.392,-4.416 18.048,-4.416c4.992,0 9.6,0.832 13.824,2.496c4.224,1.664 7.808,4.096 10.752,7.296l-4.512,4.512c-5.248,-5.312 -11.872,-7.968 -19.872,-7.968c-5.312,0 -10.144,1.216 -14.496,3.648c-4.352,2.432 -7.76,5.76 -10.224,9.984c-2.464,4.224 -3.696,8.96 -3.696,14.208c0,5.248 1.232,9.984 3.696,14.208c2.464,4.224 5.872,7.552 10.224,9.984c4.352,2.432 9.184,3.648 14.496,3.648c8.064,0 14.688,-2.688 19.872,-8.064l4.512,4.512c-2.944,3.2 -6.544,5.648 -10.8,7.344c-4.256,1.696 -8.88,2.544 -13.872,2.544Z" style="fill-opacity:0.898039;fill-rule:nonzero;"/><path d="M584.4,324.632l0,6.144l-47.52,0l0,-67.2l46.08,0l0,6.144l-38.976,0l0,23.904l34.752,0l0,6.048l-34.752,0l0,24.96l40.416,0Z" style="fill-opacity:0.898039;fill-rule:nonzero;"/></g><g><path d="M189.568,414.216c-3.328,0 -6.517,-0.533 -9.568,-1.6c-3.051,-1.067 -5.408,-2.475 -7.072,-4.224l1.856,-3.648c1.621,1.621 3.776,2.933 6.464,3.936c2.688,1.003 5.461,1.504 8.32,1.504c4.011,0 7.019,-0.736 9.024,-2.208c2.005,-1.472 3.008,-3.381 3.008,-5.728c0,-1.792 -0.544,-3.221 -1.632,-4.288c-1.088,-1.067 -2.421,-1.888 -4,-2.464c-1.579,-0.576 -3.776,-1.205 -6.592,-1.888c-3.371,-0.853 -6.059,-1.675 -8.064,-2.464c-2.005,-0.789 -3.723,-1.995 -5.152,-3.616c-1.429,-1.621 -2.144,-3.819 -2.144,-6.592c0,-2.261 0.597,-4.32 1.792,-6.176c1.195,-1.856 3.029,-3.339 5.504,-4.448c2.475,-1.109 5.547,-1.664 9.216,-1.664c2.56,0 5.067,0.352 7.52,1.056c2.453,0.704 4.576,1.675 6.368,2.912l-1.6,3.776c-1.877,-1.237 -3.883,-2.165 -6.016,-2.784c-2.133,-0.619 -4.224,-0.928 -6.272,-0.928c-3.925,0 -6.88,0.757 -8.864,2.272c-1.984,1.515 -2.976,3.467 -2.976,5.856c0,1.792 0.544,3.232 1.632,4.32c1.088,1.088 2.453,1.92 4.096,2.496c1.643,0.576 3.851,1.205 6.624,1.888c3.285,0.811 5.941,1.611 7.968,2.4c2.027,0.789 3.744,1.984 5.152,3.584c1.408,1.6 2.112,3.765 2.112,6.496c0,2.261 -0.608,4.32 -1.824,6.176c-1.216,1.856 -3.083,3.328 -5.6,4.416c-2.517,1.088 -5.611,1.632 -9.28,1.632Z" style="fill-opacity:0.898039;fill-rule:nonzero;"/><path d="M248.256,409.736l0,4.096l-31.68,0l0,-44.8l30.72,0l0,4.096l-25.984,0l0,15.936l23.168,0l0,4.032l-23.168,0l0,16.64l26.944,0Z" style="fill-opacity:0.898039;fill-rule:nonzero;"/><path d="M296.832,369.032l0,44.8l-3.904,0l-28.8,-36.352l0,36.352l-4.736,0l0,-44.8l3.904,0l28.864,36.352l0,-36.352l4.672,0Z" style="fill-opacity:0.898039;fill-rule:nonzero;"/><path d="M320.128,373.128l-15.744,0l0,-4.096l36.224,0l0,4.096l-15.744,0l0,40.704l-4.736,0l0,-40.704Z" style="fill-opacity:0.898039;fill-rule:nonzero;"/><path d="M378.752,413.832l-10.24,-14.4c-1.152,0.128 -2.347,0.192 -3.584,0.192l-12.032,0l0,14.208l-4.736,0l0,-44.8l16.768,0c5.717,0 10.197,1.365 13.44,4.096c3.243,2.731 4.864,6.485 4.864,11.264c0,3.499 -0.885,6.453 -2.656,8.864c-1.771,2.411 -4.299,4.149 -7.584,5.216l10.944,15.36l-5.184,0Zm-13.952,-18.24c4.437,0 7.829,-0.981 10.176,-2.944c2.347,-1.963 3.52,-4.715 3.52,-8.256c0,-3.627 -1.173,-6.411 -3.52,-8.352c-2.347,-1.941 -5.739,-2.912 -10.176,-2.912l-11.904,0l0,22.464l11.904,0Z" style="fill-opacity:0.898039;fill-rule:nonzero;"/><path d="M409.152,398.344l0,15.488l-4.672,0l0,-15.488l-17.92,-29.312l5.056,0l15.36,25.152l15.36,-25.152l4.736,0l-17.92,29.312Z" style="fill-opacity:0.898039;fill-rule:nonzero;"/></g><g><path d="M296.379,103.938c0,2.086 -0.258,3.95 -0.774,5.59c-0.515,1.641 -1.212,3.088 -2.091,4.342c-0.879,1.254 -1.893,2.326 -3.041,3.217c-1.149,0.89 -2.35,1.623 -3.604,2.197c-1.254,0.574 -2.519,0.99 -3.797,1.248c-1.277,0.258 -2.478,0.387 -3.603,0.387l19.09,16.488l-14.133,0l-19.055,-16.488l-6.574,0l0,-9.141l20.672,0c1.148,-0.094 2.197,-0.334 3.146,-0.721c0.949,-0.386 1.77,-0.908 2.461,-1.564c0.692,-0.656 1.225,-1.447 1.6,-2.373c0.375,-0.926 0.562,-1.986 0.562,-3.182l0,-5.765c0,-0.516 -0.064,-0.909 -0.193,-1.178c-0.129,-0.27 -0.293,-0.469 -0.492,-0.598c-0.199,-0.129 -0.41,-0.205 -0.633,-0.228c-0.223,-0.024 -0.428,-0.035 -0.615,-0.035l-30.164,0l0,41.273l-9.141,0l0,-45.809c0,-0.632 0.117,-1.23 0.352,-1.792c0.234,-0.563 0.556,-1.055 0.966,-1.477c0.411,-0.422 0.897,-0.75 1.459,-0.984c0.563,-0.235 1.172,-0.352 1.828,-0.352l34.7,0c2.039,0 3.761,0.369 5.168,1.107c1.406,0.739 2.548,1.664 3.427,2.778c0.879,1.113 1.512,2.314 1.899,3.603c0.387,1.289 0.58,2.496 0.58,3.621l0,5.836Z" style="fill:#fff;fill-opacity:0.898039;fill-rule:nonzero;"/><path d="M354,122.571c0,1.805 -0.229,3.428 -0.686,4.869c-0.457,1.442 -1.06,2.713 -1.81,3.815c-0.75,1.101 -1.629,2.039 -2.637,2.812c-1.008,0.774 -2.051,1.406 -3.129,1.899c-1.078,0.492 -2.174,0.855 -3.287,1.09c-1.113,0.234 -2.162,0.351 -3.146,0.351l-35.262,0l0,-9.141l35.262,0c1.757,0 3.123,-0.515 4.095,-1.546c0.973,-1.032 1.459,-2.414 1.459,-4.149c0,-0.844 -0.129,-1.617 -0.386,-2.32c-0.258,-0.703 -0.627,-1.313 -1.108,-1.828c-0.48,-0.516 -1.066,-0.914 -1.758,-1.196c-0.691,-0.281 -1.459,-0.421 -2.302,-0.421l-21.024,0c-1.476,0 -3.07,-0.264 -4.781,-0.792c-1.711,-0.527 -3.299,-1.376 -4.764,-2.548c-1.465,-1.172 -2.683,-2.707 -3.656,-4.606c-0.973,-1.898 -1.459,-4.219 -1.459,-6.961c0,-2.742 0.486,-5.056 1.459,-6.943c0.973,-1.887 2.191,-3.422 3.656,-4.606c1.465,-1.183 3.053,-2.039 4.764,-2.566c1.711,-0.527 3.305,-0.791 4.781,-0.791l31.114,0l0,9.141l-31.114,0c-1.734,0 -3.088,0.527 -4.06,1.582c-0.973,1.054 -1.459,2.449 -1.459,4.183c0,1.758 0.486,3.147 1.459,4.166c0.972,1.02 2.326,1.53 4.06,1.53l21.094,0c0.984,0.023 2.027,0.158 3.129,0.404c1.101,0.246 2.197,0.627 3.287,1.142c1.09,0.516 2.127,1.166 3.111,1.952c0.985,0.785 1.858,1.728 2.619,2.83c0.762,1.101 1.366,2.367 1.811,3.797c0.445,1.429 0.668,3.046 0.668,4.851Z" style="fill:#fff;fill-opacity:0.898039;fill-rule:nonzero;"/></g></svg>